
        <svg xmlns="http://www.w3.org/2000/svg" xmlns:xlink="http://www.w3.org/1999/xlink" version="1.1" width="3162.789423797225" height="2154.06583111239" viewBox="0 -24.418413569583727 3162.789423797225 2154.06583111239">
			
			<g transform="scale(8.139471189861242) translate(10, 10)">
				<defs id="SvgjsDefs7367"/><g id="SvgjsG7368" featureKey="ZxbabI-0" transform="matrix(1.380687830687831,0,0,1.380687830687831,112.09656084656085,-20.672804496149542)" fill="#fff"><polygon xmlns="http://www.w3.org/2000/svg" points="51.9,50.2 95,12.8 51.5,12.8 33.1,31.3 16.2,14.5 5,25.7 16.2,25.7 16.2,48.2 16.2,48.2 88.9,87.2 "/></g><g id="SvgjsG7369" featureKey="91VAEh-0" transform="matrix(3.8461538461538463,0,0,3.8461538461538463,4.4615424412947435,125.00000066023607)" fill="#fff"><path d="M14.16 12.32 c0 1.1467 -0.19666 2.1934 -0.59 3.14 s-0.90668 1.7567 -1.54 2.43 s-1.35 1.1933 -2.15 1.56 s-1.6067 0.55 -2.42 0.55 l-4.92 0 c-0.24 0 -0.41334 -0.10666 -0.52 -0.32 c-0.08 -0.18666 -0.08 -0.36 0 -0.52 l0 -13.76 c0 -0.16 0.05666 -0.29666 0.17 -0.41 s0.25668 -0.17 0.43002 -0.17 l4.82 0 c1 0 1.9133 0.21666 2.74 0.65 s1.5367 1 2.13 1.7 s1.05 1.5 1.37 2.4 s0.48 1.8167 0.48 2.75 z M12.98 12.32 c0 -0.78666 -0.13334 -1.56 -0.4 -2.32 s-0.64332 -1.4367 -1.13 -2.03 s-1.07 -1.0733 -1.75 -1.44 s-1.4333 -0.55 -2.26 -0.55 l-4.24 0 l0 12.86 l4.26 0 c0.81334 0 1.56 -0.19666 2.24 -0.59 s1.2633 -0.9 1.75 -1.52 s0.86332 -1.3167 1.13 -2.09 s0.4 -1.5467 0.4 -2.32 z M25.72 19.42 c0 0.16 -0.05666 0.29664 -0.17 0.40998 s-0.25668 0.17 -0.43002 0.17 l-6.88 0 c-0.17334 0 -0.31668 -0.05666 -0.43002 -0.17 s-0.17 -0.25 -0.17 -0.41 l0 -0.04 l0 -0.04 l0 -13.94 c0 -0.16 0.05666 -0.29666 0.17 -0.41 s0.25668 -0.17 0.43002 -0.17 l6.88 0 c0.17334 0 0.31668 0.05666 0.43002 0.17 s0.17 0.25 0.17 0.41 s-0.05666 0.29666 -0.17 0.41 s-0.25668 0.17 -0.43002 0.17 l-6.3 0 l0 5.7 l5.36 0 c0.16 0 0.29666 0.05666 0.41 0.17 s0.17 0.25 0.17 0.41 s-0.05666 0.29666 -0.17 0.41 s-0.25 0.17 -0.41 0.17 l-5.36 0 l0 5.98 l6.3 0 c0.17334 0 0.31668 0.05666 0.43002 0.17 s0.17 0.25668 0.17 0.43002 z M39.54 5.26 c0 0.06666 -0.01332 0.14 -0.03998 0.22 l-5.72 14.16 c-0.09334 0.24 -0.27334 0.36 -0.54 0.36 s-0.44666 -0.12 -0.54 -0.36 l-5.72 -14.16 c-0.02666 -0.08 -0.04 -0.15334 -0.04 -0.22 c0 -0.16 0.05666 -0.29666 0.17 -0.41 s0.25 -0.17 0.41 -0.17 c0.26666 0 0.45332 0.12 0.55998 0.36 l5.16 12.8 l5.16 -12.8 c0.09334 -0.24 0.27334 -0.36 0.54 -0.36 c0.16 0 0.3 0.05666 0.42 0.17 s0.18 0.25 0.18 0.41 z M50 19.42 c0 0.16 -0.05666 0.29664 -0.17 0.40998 s-0.25668 0.17 -0.43002 0.17 l-6.88 0 c-0.17334 0 -0.31668 -0.05666 -0.43002 -0.17 s-0.17 -0.25 -0.17 -0.41 l0 -0.04 l0 -0.04 l0 -13.94 c0 -0.16 0.05666 -0.29666 0.17 -0.41 s0.25668 -0.17 0.43002 -0.17 l6.88 0 c0.17334 0 0.31668 0.05666 0.43002 0.17 s0.17 0.25 0.17 0.41 s-0.05666 0.29666 -0.17 0.41 s-0.25668 0.17 -0.43002 0.17 l-6.3 0 l0 5.7 l5.36 0 c0.16 0 0.29666 0.05666 0.41 0.17 s0.17 0.25 0.17 0.41 s-0.05666 0.29666 -0.17 0.41 s-0.25 0.17 -0.41 0.17 l-5.36 0 l0 5.98 l6.3 0 c0.17334 0 0.31668 0.05666 0.43002 0.17 s0.17 0.25668 0.17 0.43002 z M59.28 19.42 c0 0.16 -0.05666 0.29666 -0.17 0.41 s-0.25668 0.17 -0.43002 0.17 l-5.34 0 c-0.16 0 -0.29666 -0.05666 -0.41 -0.17 s-0.17 -0.25 -0.17 -0.41 l0 -14.02 c0 -0.16 0.05666 -0.29666 0.17 -0.41 s0.25 -0.17 0.41 -0.17 s0.29666 0.05666 0.41 0.17 s0.17 0.25 0.17 0.41 l0 13.44 l4.76 0 c0.17334 0 0.31668 0.05666 0.43002 0.17 s0.17 0.25 0.17 0.41 z M74.3 17.34 c0 0.17334 -0.060078 0.30658 -0.18008 0.39992 c-0.72 0.73334 -1.5467 1.2933 -2.48 1.68 s-1.92 0.58 -2.96 0.58 c-1.0533 0 -2.0466 -0.2 -2.98 -0.6 s-1.7467 -0.95 -2.44 -1.65 s-1.2433 -1.5133 -1.65 -2.44 s-0.61 -1.9233 -0.61 -2.99 c0 -1.0533 0.20334 -2.04 0.61 -2.96 s0.95666 -1.7133 1.65 -2.38 s1.5067 -1.1933 2.44 -1.58 s1.9267 -0.58 2.98 -0.58 c1.04 0 2.0266 0.19334 2.96 0.58 s1.76 0.94 2.48 1.66 c0.12 0.12 0.18 0.26 0.18 0.42 s-0.06 0.3 -0.18 0.42 c-0.10666 0.10666 -0.24332 0.16 -0.40998 0.16 s-0.30332 -0.05334 -0.40998 -0.16 c-0.62666 -0.62666 -1.3333 -1.1033 -2.12 -1.43 s-1.62 -0.49 -2.5 -0.49 c-0.89334 0 -1.7333 0.16 -2.52 0.48 s-1.4767 0.76666 -2.07 1.34 s-1.06 1.2467 -1.4 2.02 s-0.51 1.6067 -0.51 2.5 s0.17 1.7333 0.51 2.52 s0.80666 1.4767 1.4 2.07 s1.2833 1.06 2.07 1.4 s1.6267 0.51 2.52 0.51 c0.84 0 1.64 -0.14666 2.4 -0.44 s1.44 -0.72668 2.04 -1.3 l0 -4.18 l-4.34 0 c-0.17334 0 -0.31668 -0.05666 -0.43002 -0.17 s-0.17 -0.25 -0.17 -0.41 s0.05666 -0.3 0.17 -0.42 s0.25668 -0.18 0.43002 -0.18 l4.92 0 c0.17334 0 0.31668 0.06 0.43002 0.18 s0.17 0.26 0.17 0.42 l0 5.02 z M92.96 12.4 c0 1.0533 -0.2 2.04 -0.6 2.96 s-0.94334 1.7233 -1.63 2.41 s-1.49 1.23 -2.41 1.63 s-1.9 0.6 -2.94 0.6 c-1.0533 0 -2.04 -0.2 -2.96 -0.6 s-1.7233 -0.94334 -2.41 -1.63 s-1.23 -1.49 -1.63 -2.41 s-0.6 -1.9067 -0.6 -2.96 c0 -1.04 0.2 -2.02 0.6 -2.94 s0.94334 -1.7233 1.63 -2.41 s1.49 -1.23 2.41 -1.63 s1.9067 -0.6 2.96 -0.6 c1.04 0 2.02 0.2 2.94 0.6 s1.7233 0.94334 2.41 1.63 s1.23 1.49 1.63 2.41 s0.6 1.9 0.6 2.94 z M91.79999999999998 12.4 c0 -0.88 -0.17 -1.71 -0.51 -2.49 s-0.8 -1.46 -1.38 -2.04 s-1.26 -1.04 -2.04 -1.38 s-1.61 -0.51 -2.49 -0.51 s-1.7133 0.17 -2.5 0.51 s-1.47 0.8 -2.05 1.38 s-1.04 1.26 -1.38 2.04 s-0.51 1.61 -0.51 2.49 c0 0.89334 0.17 1.73 0.51 2.51 s0.8 1.46 1.38 2.04 s1.2633 1.04 2.05 1.38 s1.62 0.51 2.5 0.51 s1.71 -0.17 2.49 -0.51 s1.46 -0.8 2.04 -1.38 s1.04 -1.26 1.38 -2.04 s0.51 -1.6167 0.51 -2.51 z"/></g><g id="SvgjsG7370" featureKey="iMTlXc-0" transform="matrix(0.9169591746682337,0,0,0.9169591746682337,3.331134800557651,222.97506370532847)" fill="#fff"><path d="M6.9 5.84 c1.3733 0 2.4566 0.34 3.25 1.02 s1.19 1.66 1.19 2.94 c0 1.24 -0.39334 2.21 -1.18 2.91 s-1.8733 1.05 -3.26 1.05 l-3.16 0 l0 6.24 l-1.92 0 l0 -14.16 l5.08 0 z M6.34 12.08 c1 0 1.7433 -0.18336 2.23 -0.55002 s0.73 -0.94332 0.73 -1.73 c0 -1.52 -0.98666 -2.28 -2.96 -2.28 l-2.6 0 l0 4.56 l2.6 0 z M33.812 5.48 c2.1066 0 3.8634 0.69998 5.27 2.1 s2.11 3.18 2.11 5.34 c0 1.3733 -0.31334 2.63 -0.94 3.77 s-1.51 2.0366 -2.65 2.69 s-2.4034 0.98 -3.79 0.98 c-1.3733 0 -2.6266 -0.32334 -3.76 -0.97 s-2.02 -1.54 -2.66 -2.68 s-0.96 -2.4034 -0.96 -3.79 c0 -2.1066 0.69 -3.8734 2.07 -5.3 s3.15 -2.14 5.31 -2.14 z M28.472 12.92 c0 1.6 0.49998 2.94 1.5 4.02 s2.28 1.62 3.84 1.62 c1.5333 0 2.8066 -0.53334 3.82 -1.6 s1.52 -2.4134 1.52 -4.04 c0 -1.6133 -0.5 -2.9566 -1.5 -4.03 s-2.2866 -1.61 -3.86 -1.61 c-1.52 0 -2.7866 0.53334 -3.8 1.6 s-1.52 2.4134 -1.52 4.04 z M65.364 8.44 l-3.42 11.56 l-2.02 0 l-4.14 -14.16 l2 0 l3.12 11.32 l0.04 0 l3.34 -11.32 l2.2 0 l3.34 11.32 l0.04 0 l3.12 -11.32 l2 0 l-4.12 14.16 l-2.02 0 l-3.44 -11.56 l-0.04 0 z M99.596 5.84 l0 1.8 l-7.22 0 l0 4.22 l6.72 0 l0 1.8 l-6.72 0 l0 4.54 l7.58 0 l0 1.8 l-9.5 0 l0 -14.16 l9.14 0 z M121.388 5.84 c1.3867 0 2.4734 0.34666 3.26 1.04 s1.18 1.6667 1.18 2.92 c0 0.94666 -0.32334 1.7733 -0.97 2.48 s-1.4767 1.1267 -2.49 1.26 l-0.02 0 l4.02 6.46 l-2.4 0 l-3.6 -6.24 l-2.14 0 l0 6.24 l-1.92 0 l0 -14.16 l5.08 0 z M120.828 12.08 c1 0 1.7433 -0.18336 2.23 -0.55002 s0.73 -0.94332 0.73 -1.73 c0 -1.52 -0.98666 -2.28 -2.96 -2.28 l-2.6 0 l0 4.56 l2.6 0 z M151.3 5.84 l0 1.8 l-7.22 0 l0 4.22 l6.72 0 l0 1.8 l-6.72 0 l0 4.54 l7.58 0 l0 1.8 l-9.5 0 l0 -14.16 l9.14 0 z M172.732 5.84 c1.5067 0 2.8134 0.31 3.92 0.93 s1.9533 1.47 2.54 2.55 s0.88 2.28 0.88 3.6 s-0.32666 2.5234 -0.98 3.61 s-1.5667 1.9367 -2.74 2.55 s-2.48 0.92 -3.92 0.92 l-4.74 0 l0 -14.16 l5.04 0 z M172.132 18.2 c1.08 0 2.07 -0.21002 2.97 -0.63002 s1.6133 -1.0233 2.14 -1.81 s0.79 -1.7333 0.79 -2.84 c0 -1.6 -0.49666 -2.88 -1.49 -3.84 s-2.31 -1.44 -3.95 -1.44 l-2.98 0 l0 10.56 l2.52 0 z M220.656 5.84 c1.2933 0 2.32 0.32 3.08 0.96 s1.14 1.5 1.14 2.58 c0 1.5333 -0.81334 2.5734 -2.44 3.12 l0 0.04 l0.02 0 c0.92 0.10666 1.6567 0.49 2.21 1.15 s0.83 1.45 0.83 2.37 c0 1.1867 -0.45666 2.14 -1.37 2.86 s-2.09 1.08 -3.53 1.08 l-4.94 0 l0 -14.16 l5 0 z M220.256 11.72 c0.8 0 1.43 -0.18334 1.89 -0.55 s0.69 -0.89 0.69 -1.57 c0 -0.64 -0.2 -1.1467 -0.6 -1.52 s-0.92666 -0.56 -1.58 -0.56 l-3.08 0 l0 4.2 l2.68 0 z M220.476 18.32 c0.94666 0 1.68 -0.22 2.2 -0.66 s0.78 -1.02 0.78 -1.74 c0 -0.8 -0.26334 -1.42 -0.79 -1.86 s-1.27 -0.66 -2.23 -0.66 l-2.86 0 l0 4.92 l2.9 0 z M242.328 5.84 l3.86 6.22 l3.98 -6.22 l2.34 0 l-5.36 8.12 l0 6.04 l-1.92 0 l0 -6.04 l-5.36 -8.12 l2.46 0 z M291.012 5.48 c1.84 0 3.2 0.54006 4.08 1.6201 l-1.56 1.42 c-0.24 -0.37334 -0.58 -0.67334 -1.02 -0.9 s-0.94666 -0.34 -1.52 -0.34 c-0.82666 0 -1.49 0.20334 -1.99 0.61 s-0.75 0.93 -0.75 1.57 c0 1.0667 0.70666 1.8133 2.12 2.24 l1.78 0.58 c1 0.32 1.7633 0.76666 2.29 1.34 s0.79 1.36 0.79 2.36 c0 1.3067 -0.46334 2.3634 -1.39 3.17 s-2.1034 1.21 -3.53 1.21 c-2.04 0 -3.5466 -0.65334 -4.52 -1.96 l1.58 -1.36 c0.30666 0.48 0.72666 0.85334 1.26 1.12 s1.1133 0.4 1.74 0.4 c0.78666 0 1.4533 -0.22666 2 -0.68 s0.82 -1.0133 0.82 -1.68 c0 -0.49334 -0.16666 -0.90668 -0.5 -1.24 s-0.93334 -0.63334 -1.8 -0.9 l-1.26 -0.42 c-1.2667 -0.42666 -2.1534 -0.97 -2.66 -1.63 s-0.76 -1.51 -0.76 -2.55 c0 -1.1067 0.44666 -2.0466 1.34 -2.82 s2.0466 -1.16 3.46 -1.16 z M319.48400000000004 8.44 l-3.42 11.56 l-2.02 0 l-4.14 -14.16 l2 0 l3.12 11.32 l0.04 0 l3.34 -11.32 l2.2 0 l3.34 11.32 l0.04 0 l3.12 -11.32 l2 0 l-4.12 14.16 l-2.02 0 l-3.44 -11.56 l-0.04 0 z M346.49600000000004 5.84 l0 14.16 l-1.92 0 l0 -14.16 l1.92 0 z M372.66800000000006 5.84 l0 1.8 l-6.98 0 l0 4.44 l6.5 0 l0 1.8 l-6.5 0 l0 6.12 l-1.92 0 l0 -14.16 l8.9 0 z M398.32000000000005 5.84 l0 1.8 l-4.56 0 l0 12.36 l-1.92 0 l0 -12.36 l-4.56 0 l0 -1.8 l11.04 0 z"/></g>
			</g>
		</svg>
	