<svg id="svg" version="1.1" xmlns="http://www.w3.org/2000/svg" xmlns:xlink="http://www.w3.org/1999/xlink" width="400" height="330.56768558951967" viewBox="0, 0, 400,330.56768558951967"><g id="svgg"><path id="path0" d="M188.280 18.935 C 178.089 29.168,159.704 47.686,147.423 60.087 L 125.094 82.634 87.588 45.300 C 64.654 22.471,49.836 7.960,49.449 7.950 C 49.101 7.941,48.920 8.038,49.048 8.166 C 49.369 8.488,38.633 19.185,38.235 18.939 C 38.059 18.830,38.004 18.886,38.113 19.063 C 38.379 19.493,31.617 26.210,31.253 25.879 C 31.096 25.736,31.060 25.780,31.171 25.976 C 31.425 26.423,27.660 30.194,27.309 29.844 C 27.168 29.702,27.102 29.767,27.163 29.988 C 27.301 30.493,19.513 38.392,19.118 38.147 C 18.958 38.048,18.867 38.118,18.917 38.302 C 19.052 38.798,12.854 44.974,12.463 44.732 C 12.280 44.619,12.218 44.670,12.328 44.847 C 12.609 45.302,3.365 54.621,2.911 54.340 C 2.697 54.208,2.635 54.262,2.763 54.469 C 2.884 54.666,2.532 55.321,1.979 55.926 L 0.975 57.025 25.616 57.110 L 50.256 57.194 50.169 107.609 C 50.101 147.415,50.168 157.991,50.490 157.868 C 50.713 157.782,52.722 158.691,54.952 159.887 C 57.183 161.084,60.124 162.662,61.488 163.395 C 62.851 164.127,65.157 165.353,66.612 166.120 C 74.112 170.073,75.233 170.674,75.537 170.902 C 75.846 171.134,79.897 173.310,84.463 175.696 C 85.554 176.267,87.413 177.261,88.595 177.906 C 95.211 181.517,100.197 184.132,100.465 184.132 C 100.634 184.132,100.821 184.244,100.882 184.380 C 100.942 184.517,101.661 184.976,102.479 185.402 C 104.466 186.434,109.733 189.227,112.397 190.661 C 113.579 191.297,115.959 192.560,117.686 193.467 C 119.413 194.375,120.975 195.229,121.157 195.366 C 121.339 195.502,123.124 196.474,125.124 197.525 C 127.124 198.577,129.579 199.879,130.579 200.421 C 134.283 202.425,138.717 204.777,140.000 205.418 C 140.727 205.781,141.397 206.163,141.488 206.265 C 141.579 206.368,143.215 207.249,145.124 208.224 C 147.033 209.199,148.744 210.106,148.926 210.240 C 149.107 210.374,150.744 211.271,152.562 212.234 C 154.380 213.197,156.760 214.464,157.851 215.048 C 158.942 215.632,161.174 216.816,162.810 217.679 C 164.446 218.541,166.231 219.509,166.777 219.830 C 167.322 220.150,169.107 221.129,170.744 222.006 C 172.380 222.883,174.909 224.247,176.364 225.036 C 177.818 225.825,179.678 226.784,180.496 227.167 C 181.314 227.549,182.058 227.953,182.149 228.063 C 182.240 228.174,182.983 228.609,183.802 229.031 C 186.312 230.323,192.106 233.423,194.545 234.778 C 195.818 235.485,197.529 236.375,198.347 236.756 C 199.165 237.137,199.909 237.540,200.000 237.650 C 200.091 237.761,201.727 238.651,203.636 239.629 C 205.545 240.607,207.256 241.520,207.438 241.657 C 207.739 241.885,211.226 243.756,216.364 246.449 C 217.455 247.020,220.355 248.575,222.810 249.903 C 226.989 252.164,228.392 252.917,234.711 256.287 C 236.074 257.014,238.083 258.087,239.174 258.671 C 240.264 259.256,242.645 260.530,244.463 261.504 C 246.281 262.477,248.364 263.601,249.091 264.000 C 249.818 264.400,251.529 265.299,252.893 266.000 C 254.256 266.700,255.446 267.349,255.537 267.443 C 255.628 267.537,256.669 268.112,257.851 268.722 C 259.033 269.331,261.116 270.430,262.479 271.164 C 263.843 271.897,265.851 272.978,266.942 273.565 C 268.033 274.153,269.893 275.132,271.074 275.741 C 272.256 276.351,273.298 276.926,273.389 277.020 C 273.566 277.202,274.529 277.724,278.182 279.617 C 279.455 280.277,280.570 280.893,280.661 280.987 C 280.752 281.080,281.868 281.678,283.140 282.314 C 284.413 282.950,285.529 283.545,285.620 283.636 C 285.711 283.727,286.975 284.397,288.430 285.124 C 289.884 285.851,291.149 286.521,291.240 286.612 C 291.331 286.702,291.922 287.049,292.554 287.383 C 295.187 288.772,300.045 291.352,303.058 292.962 C 304.831 293.910,306.876 294.980,307.603 295.341 C 308.331 295.701,309.000 296.079,309.091 296.180 C 309.182 296.281,309.719 296.605,310.285 296.900 C 314.584 299.145,323.060 303.673,326.446 305.535 C 327.719 306.234,329.355 307.105,330.083 307.469 C 330.810 307.833,332.000 308.466,332.727 308.874 C 333.938 309.553,338.899 312.219,342.975 314.380 C 348.182 317.140,350.688 318.489,351.570 319.006 C 352.116 319.325,354.050 320.375,355.868 321.338 C 357.686 322.301,359.917 323.483,360.826 323.965 C 361.736 324.446,364.116 325.704,366.116 326.760 C 368.116 327.815,369.901 328.786,370.083 328.916 C 370.264 329.047,370.711 329.257,371.074 329.384 C 371.438 329.510,335.029 292.905,290.165 248.039 C 245.302 203.172,208.595 166.286,208.595 166.069 C 208.595 165.852,208.726 165.625,208.886 165.565 C 209.227 165.435,211.088 163.864,217.000 158.713 C 219.377 156.642,222.215 154.172,223.306 153.225 C 224.397 152.277,226.502 150.438,227.985 149.137 C 229.935 147.426,230.848 146.828,231.290 146.971 C 231.743 147.118,231.785 147.087,231.455 146.851 C 231.114 146.607,231.580 146.043,233.439 144.447 C 234.775 143.299,237.355 141.058,239.174 139.465 C 242.423 136.618,249.500 130.482,253.376 127.149 C 254.460 126.217,256.101 124.785,257.023 123.967 C 259.007 122.206,261.448 120.079,267.273 115.036 C 269.636 112.990,272.388 110.605,273.388 109.736 C 274.388 108.867,277.153 106.470,279.532 104.409 C 288.748 96.423,293.208 92.552,298.512 87.934 C 303.355 83.717,309.597 78.312,315.840 72.927 C 316.916 71.999,318.557 70.570,319.488 69.752 C 322.229 67.341,329.784 60.786,341.014 51.074 C 344.798 47.802,349.168 44.007,350.724 42.641 C 352.280 41.276,354.521 39.342,355.702 38.344 C 356.884 37.346,358.012 36.380,358.208 36.198 C 358.404 36.017,360.021 34.603,361.801 33.058 C 363.582 31.512,367.604 28.017,370.740 25.289 C 373.876 22.562,378.862 18.248,381.820 15.702 C 384.778 13.157,388.639 9.810,390.401 8.264 C 392.163 6.719,394.734 4.488,396.115 3.306 C 397.496 2.124,398.707 0.971,398.807 0.744 C 398.951 0.414,379.646 0.331,302.897 0.331 L 206.807 0.331 188.280 18.935 " stroke="none" fill="#64a4bc" fill-rule="evenodd"></path><path id="path1" d="M303.077 0.248 C 375.435 0.311,398.989 0.425,398.811 0.713 C 398.665 0.949,398.721 1.004,398.957 0.858 C 399.167 0.728,399.339 0.482,399.339 0.311 C 399.339 0.117,363.119 0.031,303.223 0.082 L 207.107 0.164 303.077 0.248 M397.007 2.562 L 395.868 3.802 397.107 2.662 C 398.261 1.602,398.499 1.322,398.247 1.322 C 398.191 1.322,397.634 1.880,397.007 2.562 M47.934 9.025 C 47.661 9.251,47.231 9.804,46.977 10.255 C 46.605 10.917,46.748 10.852,47.718 9.917 C 48.378 9.281,48.920 8.723,48.922 8.678 C 48.931 8.463,48.380 8.657,47.934 9.025 M383.471 14.282 L 381.322 16.274 383.471 14.515 C 384.653 13.547,385.682 12.712,385.758 12.659 C 385.833 12.606,385.833 12.501,385.758 12.426 C 385.682 12.351,384.653 13.186,383.471 14.282 M375.530 21.186 L 373.388 23.199 375.620 21.311 C 377.608 19.629,378.065 19.174,377.762 19.174 C 377.712 19.174,376.708 20.079,375.530 21.186 M65.565 22.949 C 65.565 23.207,72.265 30.088,80.455 38.238 C 88.645 46.389,95.277 52.954,95.194 52.828 C 95.110 52.701,88.496 46.037,80.496 38.019 C 72.496 30.001,65.950 23.311,65.950 23.153 C 65.950 22.995,65.864 22.778,65.758 22.672 C 65.652 22.566,65.565 22.691,65.565 22.949 M369.731 26.198 L 368.760 27.273 369.916 26.281 C 370.551 25.736,371.134 25.252,371.210 25.207 C 371.287 25.161,371.204 25.124,371.026 25.124 C 370.848 25.124,370.265 25.607,369.731 26.198 M367.087 28.512 L 366.116 29.587 367.190 28.616 C 368.192 27.711,368.416 27.438,368.161 27.438 C 368.104 27.438,367.621 27.921,367.087 28.512 M362.291 32.649 L 361.157 33.883 362.312 32.892 C 362.948 32.347,363.530 31.864,363.607 31.818 C 363.684 31.773,363.674 31.663,363.586 31.575 C 363.498 31.487,362.915 31.970,362.291 32.649 M156.860 50.248 C 149.770 57.339,144.045 63.140,144.135 63.140 C 144.226 63.140,150.101 57.339,157.190 50.248 C 164.279 43.157,170.005 37.355,169.914 37.355 C 169.823 37.355,163.949 43.157,156.860 50.248 M353.554 40.208 L 351.570 42.053 353.636 40.333 C 355.433 38.837,355.948 38.323,355.620 38.355 C 355.574 38.360,354.645 39.193,353.554 40.208 M349.566 43.719 L 348.595 44.793 349.669 43.822 C 350.671 42.917,350.896 42.645,350.640 42.645 C 350.583 42.645,350.100 43.128,349.566 43.719 M345.785 46.978 L 343.636 48.987 345.868 47.098 C 347.829 45.437,348.326 44.944,348.017 44.964 C 347.971 44.967,346.967 45.874,345.785 46.978 M342.454 49.808 L 341.653 50.691 342.552 50.056 C 343.046 49.707,343.455 49.310,343.461 49.174 C 343.478 48.766,343.296 48.881,342.454 49.808 M339.979 51.983 L 339.008 53.058 340.164 52.066 C 340.799 51.521,341.382 51.037,341.458 50.992 C 341.535 50.946,341.452 50.909,341.274 50.909 C 341.096 50.909,340.513 51.393,339.979 51.983 M337.004 54.628 L 336.033 55.702 337.107 54.732 C 337.698 54.198,338.182 53.714,338.182 53.657 C 338.182 53.402,337.909 53.627,337.004 54.628 M332.375 58.599 C 331.596 59.435,331.482 59.630,332.089 59.084 C 332.647 58.583,333.229 58.286,333.382 58.425 C 333.535 58.564,333.561 58.504,333.439 58.293 C 333.318 58.081,333.406 57.841,333.634 57.759 C 333.863 57.678,333.966 57.519,333.863 57.407 C 333.760 57.294,333.091 57.831,332.375 58.599 M49.917 107.669 C 49.826 134.979,49.864 157.210,50.001 157.073 C 50.138 156.936,50.212 134.593,50.166 107.420 L 50.083 58.017 49.917 107.669 M327.417 62.893 L 326.446 63.967 327.602 62.975 C 328.237 62.430,328.820 61.946,328.896 61.901 C 328.973 61.855,328.890 61.818,328.712 61.818 C 328.534 61.818,327.951 62.302,327.417 62.893 M324.679 65.157 C 324.071 65.710,323.635 66.224,323.710 66.300 C 323.785 66.375,324.349 65.918,324.963 65.284 C 326.336 63.869,326.175 63.797,324.679 65.157 M319.814 69.504 L 318.843 70.579 319.917 69.608 C 320.508 69.074,320.992 68.590,320.992 68.533 C 320.992 68.278,320.719 68.503,319.814 69.504 M129.752 77.686 C 127.029 80.413,124.876 82.645,124.967 82.645 C 125.058 82.645,127.360 80.413,130.083 77.686 C 132.805 74.959,134.959 72.727,134.868 72.727 C 134.777 72.727,132.475 74.959,129.752 77.686 M307.252 80.413 L 306.281 81.488 307.355 80.517 C 307.946 79.983,308.430 79.499,308.430 79.442 C 308.430 79.187,308.157 79.412,307.252 80.413 M303.471 83.675 L 301.322 85.686 303.390 83.966 C 305.227 82.438,306.031 81.642,305.722 81.658 C 305.666 81.661,304.653 82.569,303.471 83.675 M294.690 91.322 L 293.719 92.397 294.793 91.426 C 295.384 90.892,295.868 90.408,295.868 90.351 C 295.868 90.096,295.595 90.321,294.690 91.322 M289.895 95.459 L 288.760 96.693 289.916 95.702 C 290.551 95.157,291.134 94.674,291.210 94.628 C 291.287 94.583,291.278 94.473,291.190 94.385 C 291.101 94.297,290.519 94.780,289.895 95.459 M282.296 102.066 L 281.157 103.306 282.476 102.149 C 283.201 101.512,283.858 100.955,283.936 100.909 C 284.014 100.864,283.933 100.826,283.756 100.826 C 283.580 100.826,282.923 101.384,282.296 102.066 M277.500 106.198 L 276.529 107.273 277.603 106.302 C 278.194 105.768,278.678 105.284,278.678 105.227 C 278.678 104.972,278.405 105.197,277.500 106.198 M274.393 108.774 C 273.763 109.312,273.401 109.752,273.587 109.752 C 273.773 109.752,274.353 109.306,274.876 108.760 C 276.079 107.505,275.870 107.511,274.393 108.774 M270.217 112.448 L 269.587 113.160 270.496 112.575 C 271.433 111.972,271.611 111.736,271.126 111.736 C 270.972 111.736,270.563 112.056,270.217 112.448 M264.938 117.107 L 263.967 118.182 265.041 117.211 C 265.632 116.677,266.116 116.193,266.116 116.136 C 266.116 115.881,265.843 116.106,264.938 117.107 M262.200 119.372 C 261.592 119.925,261.155 120.439,261.231 120.514 C 261.306 120.590,261.870 120.133,262.484 119.499 C 263.856 118.083,263.696 118.012,262.200 119.372 M249.892 130.139 L 249.091 131.021 249.990 130.387 C 250.484 130.038,250.893 129.640,250.899 129.504 C 250.916 129.097,250.734 129.211,249.892 130.139 M247.473 132.195 C 246.880 132.814,246.686 133.230,246.923 133.377 C 247.124 133.501,247.248 133.461,247.198 133.288 C 247.148 133.114,247.524 132.582,248.034 132.106 C 248.543 131.629,248.831 131.240,248.674 131.240 C 248.517 131.240,247.976 131.670,247.473 132.195 M244.773 134.628 L 243.802 135.702 244.876 134.732 C 245.467 134.198,245.950 133.714,245.950 133.657 C 245.950 133.402,245.678 133.627,244.773 134.628 M239.977 138.762 C 239.353 139.440,239.226 139.659,239.694 139.250 C 240.162 138.841,240.669 138.619,240.821 138.757 C 240.973 138.895,240.999 138.835,240.877 138.623 C 240.756 138.412,240.844 138.172,241.072 138.090 C 241.301 138.008,241.403 137.849,241.300 137.736 C 241.196 137.623,240.601 138.085,239.977 138.762 M232.048 145.702 L 230.909 146.942 232.149 145.803 C 233.303 144.743,233.540 144.463,233.288 144.463 C 233.233 144.463,232.675 145.021,232.048 145.702 M227.326 149.697 C 226.685 150.366,226.573 150.634,226.933 150.634 C 227.211 150.634,227.362 150.558,227.270 150.465 C 227.177 150.373,227.426 149.951,227.823 149.529 C 228.220 149.106,228.473 148.760,228.384 148.760 C 228.295 148.760,227.819 149.182,227.326 149.697 M220.165 155.901 C 217.155 158.513,216.073 159.633,218.347 157.782 C 220.461 156.062,223.024 153.746,222.810 153.748 C 222.719 153.749,221.529 154.718,220.165 155.901 M53.223 159.272 C 53.223 159.531,55.247 160.400,55.429 160.219 C 55.484 160.164,55.010 159.871,54.376 159.569 C 53.742 159.266,53.223 159.133,53.223 159.272 M214.690 160.744 L 213.719 161.818 214.793 160.847 C 215.384 160.313,215.868 159.830,215.868 159.773 C 215.868 159.517,215.595 159.742,214.690 160.744 M211.780 163.168 C 211.259 163.626,210.898 164.066,210.978 164.146 C 211.057 164.225,211.549 163.846,212.069 163.302 C 213.220 162.101,213.071 162.032,211.780 163.168 M66.777 166.517 C 67.050 166.618,67.570 166.838,67.934 167.005 C 68.584 167.304,68.585 167.301,67.953 166.795 C 67.600 166.512,67.080 166.293,66.796 166.307 C 66.351 166.330,66.349 166.358,66.777 166.517 M69.237 167.753 C 69.590 168.034,70.008 168.264,70.165 168.264 C 70.323 168.264,70.346 168.436,70.216 168.646 C 70.070 168.883,70.126 168.938,70.362 168.792 C 70.925 168.444,70.851 168.333,69.669 167.761 C 68.720 167.301,68.670 167.300,69.237 167.753 M71.228 168.906 C 71.325 169.063,71.855 169.349,72.407 169.541 C 72.959 169.733,73.332 169.763,73.235 169.606 C 73.138 169.449,72.607 169.164,72.055 168.971 C 71.503 168.779,71.131 168.750,71.228 168.906 M84.298 175.787 C 84.298 175.933,84.744 176.222,85.289 176.428 C 85.835 176.634,86.281 176.744,86.281 176.674 C 86.281 176.604,85.835 176.315,85.289 176.033 C 84.744 175.751,84.298 175.640,84.298 175.787 M89.402 178.688 C 89.755 178.955,90.192 179.174,90.374 179.174 C 90.556 179.174,90.416 178.955,90.063 178.688 C 89.710 178.421,89.273 178.203,89.091 178.203 C 88.909 178.203,89.049 178.421,89.402 178.688 M107.253 188.275 C 107.606 188.542,108.052 188.756,108.245 188.750 C 108.438 188.744,108.306 188.521,107.953 188.254 C 107.600 187.987,107.154 187.773,106.962 187.779 C 106.769 187.785,106.900 188.008,107.253 188.275 M117.496 193.679 C 117.595 193.839,118.013 194.055,118.425 194.159 C 119.147 194.341,119.151 194.330,118.532 193.868 C 117.821 193.337,117.216 193.227,117.496 193.679 M132.231 201.621 C 132.231 201.896,133.587 202.390,133.789 202.189 C 133.843 202.135,133.515 201.921,133.059 201.714 C 132.604 201.506,132.231 201.465,132.231 201.621 M135.795 203.417 C 136.210 203.648,136.433 203.964,136.291 204.120 C 136.149 204.276,136.241 204.283,136.496 204.135 C 136.993 203.847,136.141 202.962,135.391 202.987 C 135.199 202.993,135.381 203.187,135.795 203.417 M137.190 204.217 C 137.190 204.363,137.636 204.652,138.182 204.857 C 138.727 205.063,139.174 205.174,139.174 205.104 C 139.174 205.033,138.727 204.745,138.182 204.463 C 137.636 204.181,137.190 204.070,137.190 204.217 M150.083 211.208 C 150.083 211.483,151.439 211.977,151.640 211.776 C 151.694 211.722,151.366 211.508,150.910 211.300 C 150.455 211.093,150.083 211.051,150.083 211.208 M155.041 213.702 C 155.041 213.793,155.488 214.098,156.033 214.380 C 156.579 214.662,157.025 214.819,157.025 214.728 C 157.025 214.637,156.579 214.332,156.033 214.050 C 155.488 213.768,155.041 213.611,155.041 213.702 M183.286 228.910 C 183.639 229.191,184.057 229.421,184.215 229.421 C 184.373 229.421,184.396 229.593,184.266 229.803 C 184.120 230.040,184.175 230.095,184.412 229.949 C 184.975 229.601,184.900 229.490,183.719 228.918 C 182.770 228.458,182.720 228.457,183.286 228.910 M216.198 246.531 C 216.198 246.677,216.645 246.966,217.190 247.172 C 217.736 247.377,218.182 247.488,218.182 247.418 C 218.182 247.347,217.736 247.059,217.190 246.777 C 216.645 246.495,216.198 246.384,216.198 246.531 M226.612 252.296 C 226.975 252.502,227.382 252.832,227.516 253.030 C 227.683 253.277,227.760 253.263,227.764 252.987 C 227.766 252.766,227.481 252.431,227.129 252.243 C 226.259 251.777,225.783 251.826,226.612 252.296 M234.050 256.117 C 234.050 256.264,234.496 256.552,235.041 256.758 C 235.587 256.964,236.033 257.075,236.033 257.005 C 236.033 256.934,235.587 256.646,235.041 256.364 C 234.496 256.082,234.050 255.971,234.050 256.117 M239.154 259.019 C 239.507 259.286,239.953 259.499,240.146 259.494 C 240.338 259.488,240.207 259.265,239.854 258.998 C 239.501 258.731,239.055 258.517,238.862 258.523 C 238.670 258.529,238.801 258.752,239.154 259.019 M241.322 259.983 C 241.322 260.074,241.769 260.379,242.314 260.661 C 242.860 260.943,243.306 261.100,243.306 261.009 C 243.306 260.918,242.860 260.613,242.314 260.331 C 241.769 260.049,241.322 259.892,241.322 259.983 M256.670 268.390 C 256.768 268.550,257.186 268.765,257.598 268.869 C 258.321 269.051,258.325 269.041,257.705 268.579 C 256.995 268.048,256.390 267.937,256.670 268.390 M264.132 272.316 C 264.132 272.462,264.579 272.751,265.124 272.957 C 265.669 273.163,266.116 273.273,266.116 273.203 C 266.116 273.132,265.669 272.844,265.124 272.562 C 264.579 272.280,264.132 272.169,264.132 272.316 M279.811 280.834 C 280.161 281.099,280.529 281.235,280.627 281.136 C 280.835 280.928,279.995 280.338,279.504 280.346 C 279.322 280.349,279.460 280.568,279.811 280.834 M281.983 281.801 C 281.983 281.892,282.430 282.197,282.975 282.479 C 283.521 282.761,283.967 282.918,283.967 282.827 C 283.967 282.736,283.521 282.431,282.975 282.149 C 282.430 281.867,281.983 281.710,281.983 281.801 M286.942 284.547 C 286.942 284.694,287.388 284.982,287.934 285.188 C 288.479 285.394,288.926 285.505,288.926 285.434 C 288.926 285.364,288.479 285.075,287.934 284.793 C 287.388 284.511,286.942 284.401,286.942 284.547 M304.793 294.134 C 304.793 294.281,305.240 294.569,305.785 294.775 C 306.331 294.981,306.777 295.092,306.777 295.021 C 306.777 294.951,306.331 294.662,305.785 294.380 C 305.240 294.098,304.793 293.987,304.793 294.134 M322.645 303.721 C 322.645 303.867,323.091 304.156,323.636 304.362 C 324.182 304.568,324.628 304.678,324.628 304.608 C 324.628 304.537,324.182 304.249,323.636 303.967 C 323.091 303.685,322.645 303.574,322.645 303.721 M330.394 307.950 C 331.104 308.481,331.709 308.591,331.430 308.139 C 331.331 307.979,330.913 307.763,330.501 307.660 C 329.778 307.478,329.775 307.488,330.394 307.950 M334.876 310.382 C 334.876 310.656,336.232 311.151,336.433 310.950 C 336.487 310.896,336.159 310.681,335.704 310.474 C 335.249 310.267,334.876 310.225,334.876 310.382 M355.372 321.140 C 355.372 321.231,355.818 321.536,356.364 321.818 C 356.909 322.100,357.355 322.257,357.355 322.166 C 357.355 322.075,356.909 321.770,356.364 321.488 C 355.818 321.206,355.372 321.049,355.372 321.140 " stroke="none" fill="#7ab3cc" fill-rule="evenodd"></path><path id="path2" d="M203.956 2.893 L 202.149 4.793 204.050 2.986 C 205.095 1.993,205.950 1.137,205.950 1.086 C 205.950 0.840,205.634 1.127,203.956 2.893 M199.008 7.438 C 197.471 8.983,196.323 10.248,196.458 10.248 C 196.698 10.248,201.983 4.986,201.983 4.748 C 201.983 4.477,201.685 4.747,199.008 7.438 M392.805 6.291 C 392.211 6.831,391.913 7.264,392.144 7.254 C 392.374 7.244,392.908 6.798,393.331 6.263 C 394.297 5.040,394.172 5.047,392.805 6.291 M194.789 11.727 C 194.109 12.358,193.636 12.879,193.737 12.884 C 193.838 12.889,194.489 12.372,195.184 11.736 C 195.878 11.099,196.351 10.579,196.235 10.579 C 196.119 10.579,195.468 11.095,194.789 11.727 M42.616 14.475 C 41.783 15.332,40.973 16.256,40.818 16.529 C 40.663 16.802,41.382 16.163,42.416 15.109 C 44.058 13.437,44.530 12.859,44.215 12.904 C 44.169 12.911,43.450 13.618,42.616 14.475 M192.453 13.990 C 191.444 15.064,191.555 15.357,192.582 14.330 C 193.048 13.865,193.370 13.426,193.300 13.355 C 193.229 13.284,192.848 13.569,192.453 13.990 M59.519 16.997 C 60.250 17.960,66.531 24.132,66.780 24.132 C 66.900 24.132,65.774 22.905,64.278 21.405 C 60.973 18.090,58.868 16.140,59.519 16.997 M39.309 17.778 C 38.838 18.273,38.330 18.901,38.180 19.174 C 38.029 19.446,38.452 19.101,39.118 18.406 C 40.189 17.291,40.521 16.838,40.248 16.869 C 40.202 16.874,39.780 17.283,39.309 17.778 M36.694 20.390 C 35.961 21.165,35.948 21.222,36.573 20.889 C 36.960 20.683,37.365 20.287,37.471 20.009 C 37.731 19.334,37.659 19.369,36.694 20.390 M70.071 27.536 C 71.065 28.573,71.922 29.421,71.975 29.421 C 72.277 29.421,71.088 28.087,69.779 26.957 C 68.348 25.721,68.364 25.753,70.071 27.536 M28.430 28.654 C 27.697 29.430,27.683 29.486,28.308 29.154 C 28.696 28.947,29.100 28.551,29.207 28.274 C 29.466 27.598,29.395 27.633,28.430 28.654 M24.298 32.784 C 23.336 33.782,23.333 33.797,24.187 33.251 C 24.672 32.941,25.151 32.473,25.251 32.212 C 25.500 31.563,25.436 31.602,24.298 32.784 M19.903 37.191 C 19.122 38.009,18.575 38.678,18.688 38.678 C 18.907 38.678,20.361 37.242,21.115 36.281 C 21.933 35.239,21.350 35.676,19.903 37.191 M15.207 41.920 C 13.661 43.475,12.691 44.535,13.050 44.275 C 13.990 43.593,18.270 39.314,18.132 39.193 C 18.069 39.137,16.752 40.364,15.207 41.920 M350.413 43.140 C 349.796 43.777,349.433 44.298,349.605 44.298 C 349.777 44.298,350.333 43.777,350.841 43.140 C 352.019 41.663,351.845 41.663,350.413 43.140 M8.308 48.763 C 7.150 49.943,6.302 50.909,6.423 50.909 C 6.650 50.909,9.402 48.200,10.206 47.184 C 11.106 46.048,10.373 46.657,8.308 48.763 M2.463 54.671 C 1.165 56.014,0.856 56.685,2.111 55.435 C 2.807 54.742,3.323 54.129,3.258 54.073 C 3.194 54.016,2.836 54.286,2.463 54.671 M101.812 59.256 C 105.031 62.557,105.455 62.960,105.455 62.721 C 105.455 62.673,103.855 61.073,101.901 59.168 L 98.347 55.702 101.812 59.256 M13.140 57.438 C 19.913 57.488,30.996 57.488,37.769 57.438 C 44.541 57.388,39.000 57.347,25.455 57.347 C 11.909 57.347,6.368 57.388,13.140 57.438 M49.748 107.769 C 49.748 134.950,49.787 146.070,49.835 132.479 C 49.882 118.888,49.882 96.649,49.835 83.058 C 49.787 69.467,49.748 80.587,49.748 107.769 M132.890 74.298 L 125.785 81.488 132.975 74.383 C 136.930 70.476,140.165 67.240,140.165 67.193 C 140.165 66.958,139.491 67.617,132.890 74.298 M320.476 69.112 C 319.942 69.669,319.728 70.035,320.001 69.924 C 320.445 69.745,321.855 68.099,321.565 68.099 C 321.500 68.099,321.009 68.555,320.476 69.112 M310.888 77.438 L 309.917 78.512 310.992 77.541 C 311.583 77.007,312.066 76.524,312.066 76.467 C 312.066 76.212,311.793 76.437,310.888 77.438 M293.719 92.416 C 293.103 92.939,292.988 93.133,293.416 92.928 C 294.030 92.634,295.145 91.568,294.834 91.572 C 294.766 91.573,294.264 91.953,293.719 92.416 M278.161 105.868 L 277.190 106.942 278.264 105.971 C 278.855 105.437,279.339 104.954,279.339 104.897 C 279.339 104.641,279.066 104.866,278.161 105.868 M263.789 118.373 L 262.645 119.391 263.709 118.688 C 264.653 118.065,265.366 117.355,265.048 117.355 C 264.985 117.355,264.419 117.813,263.789 118.373 M257.929 123.315 C 257.335 123.856,256.972 124.298,257.123 124.298 C 257.274 124.298,257.825 123.851,258.347 123.306 C 259.562 122.038,259.328 122.043,257.929 123.315 " stroke="none" fill="#8abdd3" fill-rule="evenodd"></path><path id="path3" d="M-0.000 0.523 C -0.000 0.811,0.177 0.988,0.393 0.916 C 1.006 0.712,1.107 -0.000,0.523 -0.000 C 0.236 -0.000,-0.000 0.236,-0.000 0.523 M204.541 0.198 C 204.432 0.306,204.423 0.602,204.520 0.855 C 204.622 1.122,204.057 1.936,203.174 2.794 C 202.338 3.607,201.653 4.371,201.653 4.491 C 201.653 4.775,202.318 4.221,204.763 1.901 L 206.767 0.000 205.753 0.000 C 205.195 0.000,204.649 0.089,204.541 0.198 M399.181 1.028 C 398.621 1.592,398.597 1.730,399.016 1.995 C 399.811 2.498,400.000 2.369,400.000 1.322 C 400.000 0.167,400.026 0.177,399.181 1.028 M397.521 2.567 C 397.339 2.701,396.967 3.101,396.694 3.456 C 396.202 4.096,396.205 4.096,397.097 3.456 C 397.591 3.101,398.000 2.698,398.006 2.562 C 398.019 2.257,397.942 2.257,397.521 2.567 M393.599 5.984 C 393.078 6.530,392.706 7.028,392.772 7.091 C 392.838 7.154,393.389 6.700,393.995 6.082 C 394.601 5.464,394.973 4.966,394.821 4.975 C 394.670 4.983,394.119 5.437,393.599 5.984 M390.496 8.732 C 390.087 9.124,389.752 9.544,389.752 9.665 C 389.752 9.787,390.147 9.520,390.630 9.072 C 391.113 8.624,391.448 8.204,391.374 8.139 C 391.300 8.073,390.905 8.340,390.496 8.732 M386.777 12.066 C 386.350 12.521,386.158 12.893,386.351 12.893 C 386.543 12.893,386.944 12.521,387.242 12.066 C 387.540 11.612,387.732 11.240,387.669 11.240 C 387.605 11.240,387.204 11.612,386.777 12.066 M383.864 14.558 C 383.046 15.320,382.943 15.592,383.561 15.355 C 383.935 15.212,384.957 13.884,384.693 13.884 C 384.635 13.884,384.262 14.188,383.864 14.558 M380.444 17.521 C 379.873 18.066,379.540 18.508,379.703 18.503 C 380.048 18.493,382.039 16.529,381.705 16.529 C 381.582 16.529,381.015 16.975,380.444 17.521 M377.190 20.331 C 376.763 20.785,376.534 21.157,376.681 21.157 C 376.829 21.157,377.294 20.785,377.715 20.331 C 378.136 19.876,378.365 19.504,378.224 19.504 C 378.082 19.504,377.617 19.876,377.190 20.331 M374.277 22.823 C 373.460 23.584,373.356 23.857,373.974 23.620 C 374.348 23.476,375.370 22.149,375.106 22.149 C 375.048 22.149,374.675 22.452,374.277 22.823 M370.857 25.785 C 370.286 26.331,369.927 26.777,370.059 26.777 C 370.191 26.777,370.745 26.331,371.291 25.785 C 371.836 25.240,372.195 24.793,372.089 24.793 C 371.982 24.793,371.428 25.240,370.857 25.785 M367.644 28.463 C 366.919 29.138,366.874 29.707,367.580 29.271 C 367.930 29.054,368.721 27.769,368.504 27.769 C 368.441 27.769,368.054 28.081,367.644 28.463 M72.617 29.754 C 75.156 32.448,107.438 64.433,107.438 64.256 C 107.438 63.961,72.221 28.760,71.926 28.760 C 71.790 28.760,72.101 29.208,72.617 29.754 M364.959 30.837 C 363.959 31.649,363.370 32.566,364.166 32.070 C 364.548 31.832,365.033 31.362,365.243 31.025 C 365.687 30.315,365.639 30.284,364.959 30.837 M360.871 34.413 C 360.350 34.960,359.979 35.458,360.045 35.521 C 360.111 35.584,360.661 35.130,361.268 34.512 C 361.874 33.894,362.246 33.396,362.094 33.404 C 361.942 33.413,361.392 33.867,360.871 34.413 M357.769 37.162 C 357.360 37.554,357.025 37.974,357.025 38.095 C 357.025 38.216,357.420 37.949,357.903 37.502 C 358.386 37.054,358.721 36.634,358.647 36.569 C 358.573 36.503,358.178 36.770,357.769 37.162 M165.367 40.996 C 163.319 42.993,161.741 44.628,161.861 44.628 C 162.100 44.628,163.086 43.712,166.794 40.045 C 168.989 37.875,169.458 37.346,169.174 37.359 C 169.128 37.361,167.415 38.998,165.367 40.996 M354.078 40.231 C 353.640 40.651,353.354 41.068,353.444 41.157 C 353.533 41.247,353.954 40.949,354.380 40.496 C 355.373 39.439,355.130 39.226,354.078 40.231 M351.074 42.919 C 350.326 43.649,350.316 43.689,350.973 43.348 C 351.372 43.141,351.796 42.814,351.916 42.621 C 352.322 41.963,351.902 42.112,351.074 42.919 M143.383 62.975 C 133.473 72.884,125.124 80.992,124.831 80.992 C 124.242 80.992,124.113 81.500,124.623 81.815 C 124.958 82.022,150.744 56.339,150.744 55.799 C 150.744 55.634,150.870 55.576,151.025 55.672 C 151.179 55.767,151.499 55.483,151.736 55.041 C 151.972 54.599,152.255 54.276,152.364 54.323 C 152.473 54.370,154.369 52.580,156.577 50.345 C 158.786 48.110,160.517 46.281,160.425 46.281 C 160.333 46.281,160.609 45.988,161.038 45.631 C 161.467 45.273,161.724 44.976,161.610 44.970 C 161.495 44.964,153.293 53.066,143.383 62.975 M347.500 46.116 C 347.105 46.570,346.875 46.942,346.989 46.942 C 347.103 46.942,347.542 46.570,347.963 46.116 C 348.384 45.661,348.614 45.289,348.474 45.289 C 348.333 45.289,347.895 45.661,347.500 46.116 M344.525 48.608 C 343.855 49.233,343.635 49.587,343.919 49.587 C 343.983 49.587,344.437 49.215,344.927 48.760 C 345.418 48.306,345.691 47.934,345.534 47.934 C 345.377 47.934,344.923 48.237,344.525 48.608 M341.566 51.129 C 341.337 51.222,340.982 51.619,340.778 52.012 C 340.430 52.682,340.462 52.676,341.277 51.926 C 341.757 51.485,342.149 51.076,342.149 51.017 C 342.149 50.896,342.143 50.897,341.566 51.129 M338.130 54.215 C 337.559 54.760,337.200 55.207,337.332 55.207 C 337.464 55.207,338.018 54.760,338.563 54.215 C 339.109 53.669,339.468 53.223,339.361 53.223 C 339.255 53.223,338.701 53.669,338.130 54.215 M0.000 57.025 C 0.000 58.025,0.133 58.843,0.295 58.843 C 0.775 58.843,0.970 57.962,0.577 57.569 C 0.313 57.305,0.385 57.017,0.838 56.517 C 1.371 55.927,1.391 55.783,0.979 55.522 C 0.125 54.982,0.000 55.173,0.000 57.025 M335.207 56.622 C 334.934 56.844,334.493 57.322,334.228 57.686 C 333.962 58.050,334.222 57.910,334.806 57.376 C 335.758 56.506,336.033 56.177,335.785 56.209 C 335.740 56.215,335.479 56.401,335.207 56.622 M49.045 57.774 C 48.772 57.950,48.795 58.134,49.127 58.443 C 49.509 58.797,49.587 58.754,49.587 58.195 C 49.587 57.442,49.574 57.432,49.045 57.774 M327.934 63.055 C 327.298 63.732,327.074 64.073,327.438 63.813 C 328.400 63.125,329.657 61.818,329.352 61.822 C 329.208 61.824,328.570 62.379,327.934 63.055 M107.769 64.604 C 107.769 64.880,111.951 69.091,112.225 69.091 C 112.473 69.091,110.786 67.255,108.933 65.508 C 108.293 64.903,107.769 64.497,107.769 64.604 M325.455 65.046 C 324.600 65.674,324.097 66.575,324.870 66.093 C 325.275 65.841,325.680 65.445,325.768 65.214 C 325.953 64.732,325.912 64.710,325.455 65.046 M321.138 68.899 C 320.785 69.156,320.584 69.455,320.691 69.562 C 320.798 69.669,321.156 69.458,321.486 69.093 C 322.188 68.317,322.044 68.236,321.138 68.899 M116.595 73.656 C 118.922 75.984,120.890 77.843,120.967 77.785 C 121.136 77.659,112.865 69.421,112.570 69.421 C 112.456 69.421,114.268 71.327,116.595 73.656 M318.430 71.257 C 318.021 71.649,317.686 72.072,317.686 72.197 C 317.686 72.322,318.088 72.051,318.579 71.595 C 319.070 71.140,319.405 70.717,319.323 70.655 C 319.241 70.593,318.839 70.864,318.430 71.257 M314.793 74.362 C 314.012 75.013,313.852 75.372,314.342 75.372 C 314.503 75.372,314.878 75.000,315.176 74.545 C 315.819 73.565,315.774 73.543,314.793 74.362 M311.814 76.914 C 311.585 77.007,311.242 77.404,311.052 77.797 C 310.757 78.410,310.771 78.441,311.154 78.017 C 311.400 77.744,311.809 77.335,312.065 77.107 C 312.552 76.674,312.503 76.637,311.814 76.914 M304.768 83.184 C 304.004 84.014,304.001 84.033,304.704 83.604 C 305.110 83.357,305.514 82.966,305.603 82.734 C 305.840 82.118,305.663 82.213,304.768 83.184 M302.228 85.179 C 301.998 85.271,301.655 85.669,301.466 86.062 C 301.153 86.709,301.165 86.722,301.585 86.203 C 301.840 85.888,302.127 85.709,302.223 85.805 C 302.319 85.900,302.486 85.749,302.593 85.469 C 302.701 85.188,302.757 84.970,302.717 84.985 C 302.677 84.999,302.457 85.086,302.228 85.179 M298.230 88.766 C 297.802 89.217,297.589 89.587,297.757 89.587 C 297.925 89.587,298.386 89.215,298.781 88.760 C 299.713 87.689,299.247 87.694,298.230 88.766 M295.207 91.464 C 294.474 92.240,294.460 92.296,295.085 91.964 C 295.473 91.757,295.877 91.361,295.984 91.084 C 296.243 90.408,296.172 90.443,295.207 91.464 M291.923 94.243 C 291.336 94.804,290.910 95.318,290.977 95.385 C 291.107 95.515,293.223 93.619,293.223 93.372 C 293.223 93.073,292.969 93.244,291.923 94.243 M288.678 97.042 C 288.269 97.434,287.934 97.857,287.934 97.982 C 287.934 98.107,288.336 97.836,288.827 97.380 C 289.318 96.925,289.653 96.502,289.571 96.440 C 289.489 96.378,289.087 96.649,288.678 97.042 M285.264 100.059 L 284.463 100.944 285.537 100.201 C 286.621 99.452,286.839 99.174,286.339 99.174 C 286.188 99.174,285.705 99.572,285.264 100.059 M281.983 102.841 C 281.529 103.375,281.087 103.892,281.002 103.990 C 280.916 104.087,281.065 104.075,281.332 103.962 C 281.902 103.721,283.485 101.806,283.083 101.844 C 282.933 101.858,282.438 102.307,281.983 102.841 M278.891 105.604 C 278.410 106.050,278.017 106.509,278.017 106.624 C 278.017 106.739,278.463 106.412,279.008 105.897 C 279.554 105.382,280.000 104.923,280.000 104.877 C 280.000 104.659,279.695 104.859,278.891 105.604 M275.016 108.970 C 274.279 109.772,274.271 109.812,274.920 109.476 C 275.307 109.274,275.712 108.882,275.819 108.604 C 276.089 107.899,275.938 107.968,275.016 108.970 M272.128 111.418 C 271.311 112.179,271.207 112.452,271.825 112.215 C 272.200 112.071,273.221 110.744,272.958 110.744 C 272.900 110.744,272.526 111.047,272.128 111.418 M268.537 114.551 C 268.142 115.003,267.929 115.372,268.065 115.372 C 268.200 115.372,268.634 115.000,269.029 114.545 C 269.424 114.091,269.637 113.722,269.502 113.725 C 269.367 113.728,268.933 114.100,268.537 114.551 M262.226 120.010 C 261.632 120.550,261.261 120.987,261.400 120.981 C 261.731 120.967,262.529 120.312,263.098 119.587 C 263.759 118.745,263.455 118.892,262.226 120.010 M258.760 122.992 C 257.500 124.286,257.617 124.550,258.914 123.338 C 259.498 122.792,259.907 122.281,259.823 122.202 C 259.738 122.123,259.260 122.479,258.760 122.992 M252.314 128.613 C 251.174 129.682,250.979 130.009,251.653 129.719 C 252.035 129.555,253.738 127.601,253.496 127.605 C 253.437 127.606,252.905 128.059,252.314 128.613 M248.559 131.983 C 248.170 132.723,248.172 132.724,248.878 132.098 C 249.665 131.398,249.737 131.240,249.268 131.240 C 249.092 131.240,248.773 131.574,248.559 131.983 M245.568 134.545 C 244.997 135.091,244.664 135.537,244.828 135.537 C 244.992 135.537,245.547 135.091,246.062 134.545 C 246.577 134.000,246.910 133.554,246.802 133.554 C 246.694 133.554,246.139 134.000,245.568 134.545 M242.479 137.113 C 241.624 137.741,241.122 138.641,241.894 138.159 C 242.300 137.907,242.704 137.511,242.793 137.280 C 242.978 136.798,242.937 136.776,242.479 137.113 M232.893 145.377 C 231.916 146.095,231.554 146.903,232.479 146.301 C 232.979 145.975,233.388 145.577,233.388 145.417 C 233.388 145.065,233.324 145.060,232.893 145.377 M228.843 148.943 C 228.434 149.335,228.099 149.758,228.099 149.883 C 228.099 150.007,228.501 149.737,228.992 149.281 C 229.484 148.826,229.818 148.403,229.736 148.341 C 229.654 148.279,229.252 148.550,228.843 148.943 M225.448 151.909 C 224.830 152.654,225.189 152.740,225.926 152.023 C 226.276 151.683,226.405 151.405,226.214 151.405 C 226.023 151.405,225.678 151.632,225.448 151.909 M222.149 154.876 C 221.722 155.331,221.493 155.702,221.640 155.702 C 221.787 155.702,222.252 155.331,222.674 154.876 C 223.095 154.421,223.324 154.050,223.182 154.050 C 223.041 154.050,222.576 154.421,222.149 154.876 M219.252 157.245 C 219.023 157.337,218.668 157.735,218.464 158.128 C 218.116 158.797,218.148 158.792,218.963 158.042 C 219.443 157.601,219.835 157.192,219.835 157.132 C 219.835 157.012,219.829 157.013,219.252 157.245 M212.206 163.516 C 211.469 164.317,211.461 164.358,212.110 164.021 C 212.498 163.820,212.902 163.427,213.009 163.150 C 213.279 162.445,213.128 162.514,212.206 163.516 M209.434 165.735 C 209.099 165.980,208.930 166.352,209.060 166.561 C 209.443 167.182,209.829 166.999,209.998 166.116 C 210.183 165.148,210.211 165.167,209.434 165.735 M72.396 170.042 C 72.850 170.307,73.284 170.462,73.360 170.386 C 73.566 170.181,73.317 170.025,72.397 169.779 L 71.570 169.559 72.396 170.042 M115.513 193.230 C 115.863 193.495,116.231 193.631,116.330 193.532 C 116.537 193.325,115.698 192.735,115.207 192.743 C 115.025 192.746,115.163 192.965,115.513 193.230 M258.781 216.033 C 259.225 216.817,261.112 218.683,261.260 218.485 C 261.317 218.409,260.698 217.678,259.885 216.860 C 259.071 216.041,258.575 215.669,258.781 216.033 M266.514 223.966 C 267.961 225.481,268.544 225.919,267.726 224.876 C 266.972 223.915,265.519 222.479,265.300 222.479 C 265.187 222.479,265.733 223.148,266.514 223.966 M269.421 226.879 C 270.058 227.546,270.624 228.094,270.680 228.096 C 270.967 228.106,269.708 226.645,269.039 226.191 C 268.558 225.864,268.703 226.125,269.421 226.879 M277.937 235.397 C 278.254 235.774,278.809 236.245,279.171 236.443 C 279.549 236.650,279.384 236.358,278.783 235.757 C 277.607 234.581,277.057 234.347,277.937 235.397 M247.414 263.974 C 247.764 264.239,248.132 264.375,248.231 264.276 C 248.438 264.069,247.599 263.479,247.107 263.487 C 246.926 263.490,247.064 263.709,247.414 263.974 M270.158 276.095 C 270.323 276.589,271.074 276.861,271.074 276.427 C 271.074 276.249,270.839 276.013,270.551 275.903 C 270.229 275.779,270.078 275.853,270.158 276.095 M313.204 299.312 C 313.939 299.911,314.380 299.983,314.380 299.504 C 314.380 299.322,314.244 299.174,314.077 299.174 C 313.910 299.174,313.501 299.087,313.168 298.981 C 312.613 298.805,312.616 298.833,313.204 299.312 M369.375 329.763 C 369.417 330.499,369.563 330.578,370.882 330.578 C 372.547 330.579,372.545 330.571,370.697 329.639 L 369.328 328.949 369.375 329.763 M0.000 330.055 C 0.000 330.343,0.236 330.579,0.523 330.579 C 1.107 330.579,1.006 329.867,0.393 329.663 C 0.177 329.591,0.000 329.767,0.000 330.055 M372.562 330.248 C 372.562 330.430,372.785 330.579,373.058 330.579 C 373.331 330.579,373.554 330.430,373.554 330.248 C 373.554 330.066,373.331 329.917,373.058 329.917 C 372.785 329.917,372.562 330.066,372.562 330.248 " stroke="none" fill="#cceaf4" fill-rule="evenodd"></path><path id="path4" d="M395.847 4.050 L 394.876 5.124 395.950 4.153 C 396.952 3.248,397.177 2.975,396.921 2.975 C 396.864 2.975,396.381 3.459,395.847 4.050 M51.240 8.743 C 51.512 9.097,52.610 10.213,53.679 11.222 C 54.748 12.232,56.198 13.639,56.902 14.350 C 57.606 15.061,58.182 15.546,58.182 15.428 C 58.182 15.204,52.361 9.369,51.333 8.561 C 50.785 8.132,50.779 8.144,51.240 8.743 M389.421 9.460 C 389.421 9.633,388.973 10.040,388.424 10.364 C 387.875 10.688,387.513 11.094,387.619 11.265 C 387.725 11.437,388.267 11.123,388.822 10.567 C 389.378 10.012,389.740 9.465,389.627 9.352 C 389.514 9.239,389.421 9.287,389.421 9.460 M378.328 18.998 C 377.783 19.410,377.768 19.485,378.229 19.494 C 378.528 19.499,378.858 19.281,378.963 19.008 C 379.199 18.392,379.130 18.391,378.328 18.998 M179.253 27.193 C 175.573 30.876,172.562 34.000,172.562 34.135 C 172.562 34.269,175.364 31.554,178.789 28.102 C 185.370 21.468,186.301 20.496,186.081 20.496 C 186.006 20.496,182.933 23.510,179.253 27.193 M368.926 27.107 C 368.663 27.269,368.559 27.512,368.693 27.646 C 368.827 27.780,369.110 27.716,369.322 27.504 C 369.822 27.005,369.543 26.726,368.926 27.107 M77.025 34.545 C 79.839 37.364,82.212 39.669,82.298 39.669 C 82.583 39.669,72.569 29.519,72.235 29.470 C 72.056 29.443,74.211 31.727,77.025 34.545 M169.892 36.574 C 169.155 37.375,169.147 37.416,169.796 37.079 C 170.184 36.877,170.588 36.485,170.695 36.208 C 170.965 35.503,170.814 35.572,169.892 36.574 M345.600 47.428 C 345.056 47.839,345.041 47.914,345.502 47.923 C 345.801 47.929,346.131 47.711,346.235 47.438 C 346.472 46.822,346.402 46.821,345.600 47.428 M342.250 50.433 C 341.575 51.049,341.509 51.189,342.011 50.947 C 342.697 50.616,343.721 49.587,343.365 49.587 C 343.262 49.587,342.760 49.968,342.250 50.433 M0.496 56.860 C -0.084 57.798,1.292 57.849,25.061 57.772 L 49.421 57.692 25.124 57.524 C 5.934 57.391,0.844 57.269,0.909 56.942 C 1.008 56.446,0.780 56.400,0.496 56.860 M315.688 73.333 C 315.154 73.766,315.083 73.939,315.441 73.939 C 315.717 73.939,316.113 73.667,316.321 73.333 C 316.529 73.000,316.641 72.727,316.568 72.727 C 316.496 72.727,316.100 73.000,315.688 73.333 M312.498 76.188 C 311.988 76.637,311.659 77.009,311.767 77.014 C 311.875 77.020,312.396 76.653,312.924 76.199 C 313.452 75.744,313.781 75.373,313.655 75.372 C 313.529 75.372,313.008 75.739,312.498 76.188 M120.992 77.933 C 120.992 78.084,121.736 78.939,122.645 79.835 C 123.554 80.730,124.298 81.363,124.298 81.240 C 124.298 81.118,123.554 80.262,122.645 79.339 C 121.736 78.415,120.992 77.783,120.992 77.933 M303.287 84.105 C 302.934 84.363,302.733 84.661,302.840 84.768 C 302.947 84.875,303.304 84.664,303.635 84.300 C 304.337 83.524,304.193 83.443,303.287 84.105 M279.988 104.487 L 278.843 105.502 280.083 104.613 C 281.178 103.827,281.535 103.471,281.227 103.471 C 281.175 103.471,280.617 103.928,279.988 104.487 M276.612 107.237 C 275.973 107.722,275.860 108.099,276.352 108.099 C 276.527 108.099,276.830 107.802,277.025 107.438 C 277.437 106.668,277.391 106.645,276.612 107.237 M249.871 130.568 C 249.442 130.925,249.254 131.223,249.453 131.229 C 249.652 131.235,250.084 130.942,250.413 130.579 C 251.179 129.733,250.881 129.726,249.871 130.568 M219.936 156.549 C 219.260 157.165,219.195 157.305,219.697 157.063 C 220.383 156.731,221.407 155.702,221.051 155.702 C 220.948 155.702,220.446 156.083,219.936 156.549 M210.725 164.436 C 210.372 164.694,210.171 164.992,210.278 165.099 C 210.385 165.206,210.742 164.995,211.073 164.630 C 211.775 163.854,211.631 163.773,210.725 164.436 M208.605 166.004 C 208.595 166.227,233.361 191.074,233.593 191.074 C 233.662 191.074,233.719 191.017,233.719 190.948 C 233.719 190.695,209.805 166.942,209.551 166.942 C 209.407 166.942,209.137 166.682,208.952 166.364 C 208.767 166.045,208.611 165.884,208.605 166.004 M67.910 167.445 C 68.260 167.710,68.628 167.846,68.727 167.747 C 68.934 167.540,68.095 166.950,67.603 166.958 C 67.421 166.961,67.559 167.180,67.910 167.445 M103.325 186.415 C 103.228 186.573,103.474 186.787,103.874 186.891 C 104.823 187.140,104.914 187.011,104.133 186.523 C 103.786 186.307,103.422 186.258,103.325 186.415 M108.571 189.263 C 108.921 189.528,109.289 189.664,109.388 189.565 C 109.595 189.358,108.756 188.768,108.264 188.776 C 108.083 188.779,108.221 188.998,108.571 189.263 M234.050 191.537 C 234.050 191.709,239.394 197.054,240.204 197.692 C 241.318 198.569,240.117 197.215,237.098 194.189 C 234.512 191.597,234.050 191.195,234.050 191.537 M240.896 198.223 C 240.805 198.313,241.103 198.759,241.558 199.214 C 242.628 200.284,242.814 200.097,241.824 198.947 C 241.404 198.458,240.986 198.133,240.896 198.223 M242.975 200.435 C 242.975 200.530,243.880 201.513,244.985 202.618 C 247.195 204.828,247.922 205.289,246.321 203.466 C 245.178 202.164,242.975 200.169,242.975 200.435 M133.554 202.598 C 133.554 202.937,134.555 203.406,134.786 203.175 C 134.867 203.095,134.622 202.863,134.243 202.660 C 133.864 202.457,133.554 202.429,133.554 202.598 M248.584 206.144 C 248.851 206.492,249.096 206.824,249.130 206.881 C 249.163 206.939,249.283 206.835,249.398 206.650 C 249.512 206.465,249.266 206.134,248.852 205.913 C 248.142 205.535,248.127 205.548,248.584 206.144 M249.917 207.415 C 250.190 207.767,250.721 208.362,251.097 208.738 C 251.473 209.114,252.068 209.645,252.419 209.917 C 253.196 210.521,252.580 209.650,251.382 208.452 C 250.185 207.255,249.314 206.639,249.917 207.415 M253.132 210.449 C 253.045 210.536,253.643 211.277,254.461 212.095 C 255.280 212.913,256.011 213.521,256.086 213.446 C 256.161 213.371,255.563 212.630,254.756 211.800 C 253.950 210.970,253.219 210.362,253.132 210.449 M256.529 214.026 C 256.529 214.104,257.050 214.720,257.686 215.395 C 258.322 216.069,258.843 216.485,258.843 216.318 C 258.843 216.152,258.405 215.536,257.870 214.950 C 256.977 213.972,256.529 213.663,256.529 214.026 M156.509 215.052 C 156.862 215.319,157.309 215.532,157.501 215.527 C 157.694 215.521,157.562 215.298,157.210 215.031 C 156.857 214.764,156.410 214.550,156.218 214.556 C 156.025 214.562,156.157 214.785,156.509 215.052 M174.361 224.639 C 174.714 224.906,175.151 225.124,175.333 225.124 C 175.515 225.124,175.375 224.906,175.022 224.639 C 174.669 224.372,174.231 224.153,174.050 224.153 C 173.868 224.153,174.008 224.372,174.361 224.639 M280.050 237.669 C 280.122 237.888,280.290 238.055,280.421 238.041 C 280.817 238.000,280.740 237.547,280.314 237.405 C 280.096 237.332,279.977 237.451,280.050 237.669 M199.339 237.978 C 199.339 238.139,199.645 238.350,200.019 238.448 C 200.577 238.594,200.629 238.541,200.309 238.156 C 199.873 237.630,199.339 237.532,199.339 237.978 M283.956 241.516 C 284.223 241.864,284.468 242.196,284.501 242.253 C 284.535 242.311,284.655 242.207,284.770 242.022 C 284.884 241.837,284.638 241.505,284.224 241.285 C 283.514 240.906,283.499 240.920,283.956 241.516 M285.331 242.919 C 285.544 243.260,285.997 243.713,286.337 243.925 C 286.892 244.272,286.917 244.248,286.570 243.693 C 286.357 243.352,285.904 242.899,285.563 242.686 C 285.009 242.340,284.984 242.364,285.331 242.919 M315.661 273.306 C 330.684 288.351,343.015 300.579,343.063 300.479 C 343.173 300.253,288.926 245.950,288.590 245.950 C 288.456 245.950,300.638 258.260,315.661 273.306 M222.501 250.439 C 222.937 250.965,223.471 251.063,223.471 250.617 C 223.471 250.456,223.165 250.245,222.791 250.147 C 222.233 250.001,222.181 250.054,222.501 250.439 M240.000 259.796 C 240.000 259.957,240.298 260.166,240.661 260.261 C 241.442 260.465,241.558 259.996,240.799 259.705 C 240.105 259.438,240.000 259.451,240.000 259.796 M258.323 269.594 C 258.673 269.859,259.041 269.995,259.140 269.896 C 259.347 269.688,258.508 269.098,258.017 269.106 C 257.835 269.109,257.973 269.329,258.323 269.594 M288.264 285.573 C 288.264 285.913,289.266 286.382,289.497 286.150 C 289.578 286.070,289.333 285.838,288.954 285.635 C 288.574 285.432,288.264 285.404,288.264 285.573 M306.116 295.160 C 306.116 295.499,307.117 295.968,307.348 295.737 C 307.429 295.657,307.184 295.425,306.805 295.222 C 306.426 295.019,306.116 294.991,306.116 295.160 M343.816 301.283 C 344.759 302.533,349.845 307.455,350.017 307.284 C 350.113 307.187,350.126 307.070,350.045 307.025 C 349.963 306.979,348.423 305.529,346.622 303.802 C 344.820 302.074,343.558 300.941,343.816 301.283 M350.413 307.890 C 350.413 308.084,357.750 315.416,358.584 316.055 C 359.480 316.742,359.156 316.389,354.958 312.103 C 351.228 308.295,350.413 307.540,350.413 307.890 M349.091 318.309 C 349.091 318.469,349.397 318.681,349.771 318.778 C 350.329 318.924,350.381 318.872,350.061 318.486 C 349.625 317.960,349.091 317.863,349.091 318.309 M361.865 319.237 C 361.790 319.312,364.129 321.765,367.063 324.688 C 370.659 328.271,372.128 329.930,371.570 329.781 L 370.744 329.559 371.570 330.045 C 373.458 331.155,372.425 329.646,368.715 325.873 C 362.680 319.737,362.013 319.089,361.865 319.237 M354.050 320.984 C 354.050 321.128,354.347 321.323,354.711 321.418 C 355.074 321.513,355.372 321.474,355.372 321.330 C 355.372 321.186,355.074 320.991,354.711 320.896 C 354.347 320.801,354.050 320.841,354.050 320.984 " stroke="none" fill="#9cccdc" fill-rule="evenodd"></path></g></svg>